<?xml version="1.0" encoding="UTF-8" standalone="no"?>
<!-- Created with Inkscape (http://www.inkscape.org/) -->

<svg
   width="200mm"
   height="300mm"
   viewBox="0 0 200 300"
   version="1.1"
   id="svg1"
   xml:space="preserve"
   xmlns="http://www.w3.org/2000/svg"
   xmlns:svg="http://www.w3.org/2000/svg"><defs
     id="defs1" /><g
     id="layer4"
     style="display:inline"><g
       id="g52"
       style="display:inline"><path
         style="display:inline;opacity:1;fill:#333e54;fill-opacity:1;stroke:none;stroke-width:2.595;stroke-dasharray:none;stroke-opacity:1"
         d="m 30.176708,96.667761 c -4.374572,-5.659697 -8.681001,-19.289418 4.347493,-31.199648 4.037466,-15.617921 23.695911,-55.23872 64.189438,-55.23872 40.493531,0 62.922211,37.829032 64.956641,55.23872 13.62582,8.843029 10.49366,24.792881 4.60323,31.711119 C 140.77918,66.794516 68.321105,63.426154 30.176708,96.667761 Z"
         id="beanie"
         clip-path="none" /><path
         id="path23"
         style="display:inline;opacity:1;mix-blend-mode:multiply;fill:#000000;fill-opacity:0.244828;stroke:none;stroke-width:2.595;stroke-dasharray:none;stroke-opacity:1"
         d="M 100.0001,45.388961 C 55.515467,44.846464 35.262447,65.822856 35.262447,65.822856 c 0,0 0.397102,-0.319156 1.189075,-0.871782 -0.897844,1.189629 -4.115163,5.92162 -3.178618,11.540898 1.084993,6.509946 5.786727,13.923698 5.786727,13.923698 0,0 -3.02998,-8.370804 -3.797184,-13.561963 -0.674364,-4.562971 1.054668,-10.929327 1.367875,-12.026656 2.630766,-1.815494 9.047001,-5.81175 19.170923,-9.442835 -0.380875,1.181814 -2.053635,6.689597 -1.732711,11.342977 0.361664,5.244124 3.978569,13.561963 3.978569,13.561963 0,0 -1.808159,-8.498745 -1.808159,-13.923698 0,-4.426236 1.083174,-9.815648 1.482081,-11.649935 6.454548,-2.18132 14.286592,-4.168075 23.47867,-5.382617 -0.481135,1.965293 -1.781215,7.751103 -1.633492,12.330514 0.180832,5.605786 3.073714,12.658658 3.073714,12.658658 0,0 -1.446388,-8.68002 -1.265556,-13.562479 0.144794,-3.909419 1.217011,-9.557938 1.63866,-11.654069 5.342202,-0.633766 11.126368,-1.004073 17.348809,-1.004073 5.07337,0 9.83259,0.24332 14.2813,0.673344 0.84533,1.681173 2.8975,6.310192 2.8975,11.623063 0,6.690778 -2.53163,13.743347 -2.53163,13.743347 h 1.44694 c 0,0 3.25458,-8.499333 3.25458,-14.28595 0,-4.25269 -1.36745,-8.700712 -2.09238,-10.760067 8.98637,1.066855 16.62516,2.887775 22.94847,4.940784 0.62816,1.883044 2.25619,7.349308 2.10995,13.052433 -0.18083,7.052443 -2.71249,12.83901 -2.71249,12.83901 0,0 5.06322,-5.244004 4.88239,-12.477275 -0.15743,-6.297264 -2.23411,-11.634818 -2.76883,-12.910839 14.6521,5.004984 21.75578,11.102681 21.75578,11.102681 0,0 -19.34868,-19.710534 -63.83331,-20.253027 z m 60.57873,18.083134 c 0,0 3.79752,5.063277 2.89336,13.019877 -0.90416,7.9566 -3.97857,13.019877 -3.97857,13.019877 0,0 5.42506,-4.52071 5.78673,-12.658142 0.36166,-8.137432 -4.70152,-13.381612 -4.70152,-13.381612 z" /></g></g></svg>
