<?xml version="1.0" encoding="UTF-8" standalone="no"?>
<!-- Created with Inkscape (http://www.inkscape.org/) -->

<svg
   width="200mm"
   height="300mm"
   viewBox="0 0 200 300"
   version="1.1"
   id="svg1"
   xml:space="preserve"
   xmlns="http://www.w3.org/2000/svg"
   xmlns:svg="http://www.w3.org/2000/svg"><defs
     id="defs1" /><g
     id="layer4"
     style="display:inline"><g
       id="g51"
       style="display:inline"><path
         id="hat"
         style="display:inline;opacity:1;fill:#333e54;fill-opacity:1;stroke:none;stroke-width:2.595;stroke-dasharray:none;stroke-opacity:1"
         d="m 99.277661,10.145117 c -5.91014,-0.110196 -6.661564,2.419137 -6.867281,4.354773 -17.289802,2.386163 -41.583812,9.741559 -50.563322,21.878251 -8.97951,12.136692 -11.703843,29.320904 -11.081494,50.042424 -0.0089,0.0059 -0.01532,0.01111 -0.02429,0.01705 0,0 0.02421,-0.01339 0.02429,-0.01344 0.0075,0.248841 -0.03353,0.488013 -0.02429,0.736906 0,0 -9.475568,13.266379 -7.813477,16.608289 0.454777,1.05355 1.761851,3.57549 3.796668,3.57549 5.237977,0 30.112781,-23.258527 71.286088,-23.258527 41.173297,0 67.642147,22.848637 73.619277,22.746927 1.43271,-0.0244 3.98167,-2.6696 3.98167,-2.6696 3.47224,-2.7168 -7.79952,-18.087784 -7.79952,-18.087784 0,-20.15032 -2.71247,-41.878102 -13.08294,-52.248579 -10.37048,-10.370478 -34.52549,-17.358678 -48.24606,-19.359936 0.19017,-2.013661 -0.82431,-4.203243 -7.205251,-4.322217 z" /><path
         id="path51"
         style="display:inline;opacity:1;mix-blend-mode:darken;fill:#000000;fill-opacity:0.527586;stroke:none;stroke-width:2.595;stroke-dasharray:none;stroke-opacity:1"
         d="m 99.277661,10.145117 c -6.19154,-0.115443 -6.721618,2.665684 -6.893636,4.626591 l 6.35,-0.499194 v 51.098173 c -13.061291,0 -27.2673,0.792045 -56.78103,14.014648 0,0 -1.48666,-44.768516 18.573468,-56.044803 -23.20651,12.056342 -19.839541,56.767757 -19.839541,56.767757 -5.231426,2.684557 -6.871413,4.291929 -9.945646,6.329329 0,0 30.837782,-19.267289 69.077954,-19.168339 38.24017,0.09895 68.35448,19.349207 68.35448,19.349207 -1.39003,-1.913803 -5.2019,-4.460806 -9.85521,-6.691065 0,0 2.714,-36.033221 -15.11474,-53.886106 16.05612,15.520513 13.9391,53.34402 13.9391,53.34402 C 137.76617,70.699008 121.5126,65.280253 100.22592,65.280253 l -0.16278,-51.018074 6.39289,0.435632 c 0.28697,-2.073394 -0.55295,-4.429162 -7.178369,-4.552694 z M 98.125277,79.83337 c -46.845944,0 -70.977838,28.63565 -75.197478,23.93601 0.454764,1.05353 1.76183,3.57549 3.796668,3.57549 5.237977,0 30.112781,-23.25853 71.286088,-23.25853 41.173295,0 67.642145,22.84864 73.619275,22.74693 1.43271,-0.0244 3.98167,-2.6696 3.98167,-2.6696 -6.6195,3.35631 -26.91519,-24.3303 -77.486223,-24.3303 z" /></g></g></svg>
