<?xml version="1.0" encoding="UTF-8" standalone="no"?>
<!-- Created with Inkscape (http://www.inkscape.org/) -->

<svg
   width="200mm"
   height="300mm"
   viewBox="0 0 200 300"
   version="1.1"
   id="svg1"
   xml:space="preserve"
   xmlns="http://www.w3.org/2000/svg"
   xmlns:svg="http://www.w3.org/2000/svg"><defs
     id="defs1" /><g
     id="layer1"><g
       id="g55"
       style="display:inline"><path
         id="eyebrows"
         style="display:inline;fill:#000000"
         d="m 60.59165,106.95915 c -2.723941,0.0547 -2.723807,0.0545 0.576193,1.10587 1.815,0.57827 8.907279,3.27695 13.032279,5.35472 4.125,2.07776 8.850134,4.26008 10.500134,4.84983 4.476557,1.60003 5.99714,1.47053 7.499801,-0.63976 1.281713,-1.8 1.281673,-1.8004 -0.542086,-1.8004 -1.003068,0 -5.761515,-1.49203 -10.574548,-3.31608 -10.428097,-3.95204 -16.836916,-5.62758 -20.491773,-5.55418 z m 78.32907,0.55087 c -4.82988,-0.0831 -9.38029,0.88307 -19.84633,4.92838 -4.85398,1.87615 -9.64648,3.5753 -10.65,3.776 -2.23661,0.44732 -2.28541,0.96518 -0.2434,2.57142 0.8695,0.68395 1.63229,1.24385 1.69499,1.24385 1.18674,0 10.41098,-3.84138 17.04651,-7.09879 4.74236,-2.32805 10.82804,-4.48596 12.52068,-4.79558 3.07752,-0.56296 3.07755,-0.56338 -0.52245,-0.62528 z" /></g></g></svg>
