<?xml version="1.0" encoding="UTF-8" standalone="no"?>
<!-- Created with Inkscape (http://www.inkscape.org/) -->

<svg
   width="200mm"
   height="300mm"
   viewBox="0 0 200 300"
   version="1.1"
   id="svg1"
   xml:space="preserve"
   xmlns="http://www.w3.org/2000/svg"
   xmlns:svg="http://www.w3.org/2000/svg"><defs
     id="defs1" /><g
     id="layer1"><g
       id="g5"><path
         id="path3"
         style="display:inline;fill:#ffffff;stroke-width:1.895"
         transform="rotate(-8.2531156)"
         d="m 124.21298,140.03305 c -1.66956,2.97214 -6.87043,5.94134 -14.71122,5.49663 -7.3543,-0.41712 -13.351944,-4.33465 -14.926628,-6.14407 1.188373,-1.94292 5.856598,-7.77012 14.518338,-7.401 10.51473,0.44809 14.01441,6.10484 15.11951,8.04844 z M 39.048562,127.68007 c 0.756312,3.32401 4.89924,7.64851 12.543253,9.44985 7.169733,1.68957 14.033254,-0.36246 16.057135,-1.64992 -0.587377,-2.20049 -3.407597,-9.11387 -11.817251,-11.22094 -10.208717,-2.55781 -15.171365,1.87149 -16.783137,3.42101 z" /><path
         style="display:inline;fill:#7a553d;fill-opacity:1;stroke:none;stroke-width:1.895"
         id="path5"
         d="m 134.25817,121.67727 c 0,3.66641 -2.97222,6.63863 -6.63863,6.63863 -3.66642,0 -6.63863,-2.97222 -6.63863,-6.63863 0,-3.66642 2.97221,-6.63863 6.63863,-6.63863 3.66641,0 6.63863,2.97221 6.63863,6.63863 z m -68.516336,0 c 0,3.66641 2.972216,6.63863 6.63863,6.63863 3.666414,0 6.63863,-2.97222 6.63863,-6.63863 0,-3.66642 -2.972216,-6.63863 -6.63863,-6.63863 -3.666414,0 -6.63863,2.97221 -6.63863,6.63863 z" /><path
         style="display:none;fill:#528f9b;fill-opacity:1;stroke:none;stroke-width:1.895"
         id="path10"
         d="m 134.25817,121.67727 c 0,3.66641 -2.97222,6.63863 -6.63863,6.63863 -3.66642,0 -6.63863,-2.97222 -6.63863,-6.63863 0,-3.66642 2.97221,-6.63863 6.63863,-6.63863 3.66641,0 6.63863,2.97221 6.63863,6.63863 z m -68.516336,0 c 0,3.66641 2.972216,6.63863 6.63863,6.63863 3.666414,0 6.63863,-2.97222 6.63863,-6.63863 0,-3.66642 -2.972216,-6.63863 -6.63863,-6.63863 -3.666414,0 -6.63863,2.97221 -6.63863,6.63863 z" /><path
         style="display:none;fill:#8faf34;fill-opacity:1;stroke:none;stroke-width:1.895"
         id="path12"
         d="m 134.25817,121.67727 c 0,3.66641 -2.97222,6.63863 -6.63863,6.63863 -3.66642,0 -6.63863,-2.97222 -6.63863,-6.63863 0,-3.66642 2.97221,-6.63863 6.63863,-6.63863 3.66641,0 6.63863,2.97221 6.63863,6.63863 z m -68.516336,0 c 0,3.66641 2.972216,6.63863 6.63863,6.63863 3.666414,0 6.63863,-2.97222 6.63863,-6.63863 0,-3.66642 -2.972216,-6.63863 -6.63863,-6.63863 -3.666414,0 -6.63863,2.97221 -6.63863,6.63863 z" /><path
         style="fill:#323135;fill-opacity:1;stroke:none;stroke-width:0.808357"
         id="circle5"
         d="m 130.4514,121.67727 c 0,1.56399 -1.26787,2.83186 -2.83186,2.83186 -1.564,0 -2.83187,-1.26787 -2.83187,-2.83186 0,-1.564 1.26787,-2.83186 2.83187,-2.83186 1.56399,0 2.83186,1.26786 2.83186,2.83186 z m -60.902799,0 c 0,1.56399 1.267868,2.83186 2.831863,2.83186 1.563995,0 2.831863,-1.26787 2.831863,-2.83186 0,-1.564 -1.267868,-2.83186 -2.831863,-2.83186 -1.563995,0 -2.831863,1.26786 -2.831863,2.83186 z" /><path
         id="path4"
         style="display:none;fill:#413b36;fill-opacity:1;stroke-width:1.895"
         transform="rotate(-8.2531155)"
         d="m 124.21298,140.03305 c -3.36414,-2.80901 -7.52684,-6.35042 -15.36763,-6.79513 -7.3543,-0.41712 -12.110512,4.57064 -14.270218,6.14769 1.086281,-2.18253 3.994809,-3.91149 1.330167,-4.32401 2.345088,-1.47338 9.093581,-3.38927 13.551851,-3.11884 1.77026,0.10738 6.00148,0.95416 7.73644,1.49574 7.66752,2.39349 9.09964,5.49639 10.74592,3.22351 -0.76924,2.61866 -2.51241,3.09181 -3.72653,3.37104 z M 39.048562,127.68007 c 4.023595,-1.73743 9.02093,-3.95019 16.664942,-2.14885 7.169733,1.68957 10.312816,7.82311 11.935447,9.94878 -0.421415,-2.40121 -2.718847,-4.88529 -0.04681,-4.52373 -1.829828,-2.07895 -7.755866,-5.83326 -12.10724,-6.84066 -1.727815,-0.40001 -6.025248,-0.7903 -7.842582,-0.76398 -8.03157,0.11636 -10.286265,2.6845 -11.21893,0.0375 -0.0065,2.7293 1.530426,3.67822 2.615176,4.2909 z" /><path
         id="path19"
         style="display:inline;fill:#413b36;fill-opacity:1;stroke-width:1.895"
         transform="rotate(-8.2531155)"
         d="m 124.21298,140.03305 c -3.36414,-2.80901 -7.52684,-6.35042 -15.36763,-6.79513 -7.3543,-0.41712 -12.110512,4.57064 -14.270218,6.14769 1.188373,-1.94292 5.856598,-7.77012 14.518338,-7.401 10.51473,0.44809 14.01441,6.10484 15.11951,8.04844 z M 39.048562,127.68007 c 4.023595,-1.73743 9.02093,-3.95019 16.664942,-2.14885 7.169733,1.68957 10.312816,7.82311 11.935447,9.94878 -0.587377,-2.20049 -3.407598,-9.11387 -11.817251,-11.22094 -10.208717,-2.55781 -15.171365,1.87149 -16.783138,3.42101 z" /></g><path
       id="circle22"
       style="fill:#ffffff;fill-opacity:0.754023;stroke:none;stroke-width:0.808357"
       d="m 74.364453,118.33386 a 1.7468722,1.7468722 0 0 0 -1.746663,1.74718 1.7468722,1.7468722 0 0 0 1.746663,1.74667 1.7468722,1.7468722 0 0 0 1.74718,-1.74667 1.7468722,1.7468722 0 0 0 -1.74718,-1.74718 z m 55.366647,0 a 1.7468722,1.7468722 0 0 0 -1.74666,1.74718 1.7468722,1.7468722 0 0 0 1.74666,1.74667 1.7468722,1.7468722 0 0 0 1.74718,-1.74667 1.7468722,1.7468722 0 0 0 -1.74718,-1.74718 z" /></g></svg>
