<?xml version="1.0" encoding="UTF-8" standalone="no"?>
<!-- Created with Inkscape (http://www.inkscape.org/) -->

<svg
   width="200mm"
   height="300mm"
   viewBox="0 0 200 300"
   version="1.1"
   id="svg1"
   xml:space="preserve"
   xmlns:xlink="http://www.w3.org/1999/xlink"
   xmlns="http://www.w3.org/2000/svg"
   xmlns:svg="http://www.w3.org/2000/svg"><defs
     id="defs1" /><g
     id="layer4"
     style="display:inline"><g
       id="g22"
       style="display:inline"><g
         id="g24"
         style="display:inline"><path
           id="rect23"
           style="display:inline;opacity:1;fill:#ffffff;fill-opacity:0.163218;stroke:none;stroke-width:1.76961"
           d="m 48.925179,108.84969 v 29.32999 h 43.11003 v -29.32999 z m 59.292501,0 v 29.32999 h 43.10952 v -29.32999 z" /><path
           id="rect24"
           style="display:inline;opacity:1;fill:#ffffff;fill-opacity:0.147126;stroke-width:1.77644"
           d="m 67.607141,108.70966 -12.527229,29.68706 3.621439,-0.35758 17.870271,-28.79311 z m -13.097921,-0.14994 -6.738767,20.21669 1.049952,8.86046 5.522517,1.26422 9.112807,-30.34137 z" /><use
           x="0"
           y="0"
           xlink:href="#rect24"
           id="use24"
           transform="translate(60.176992)"
           style="display:inline" /><path
           id="path20"
           style="display:inline;fill:#000000"
           d="m 52.72443,106.71751 c -3.424818,0 -6.225342,2.77882 -6.261116,6.19549 -0.538291,-0.10316 -1.228265,-0.27628 -2.103748,-0.52193 -4.31044,-1.20944 -4.975407,-1.23683 -4.975407,-0.20361 0,0.43874 1.617126,1.44186 3.593579,2.22881 2.367384,0.9426 3.174932,1.26383 3.485059,3.07268 v 16.59537 c 0,3.44692 2.814714,6.26215 6.261633,6.26215 h 35.142558 c 3.446921,0 6.26215,-2.81523 6.26215,-6.26215 v -11.13369 c 0.165568,-0.17861 0.342454,-0.32233 0.531234,-0.41703 2.561897,-1.28519 6.066048,-1.32911 9.614918,-0.11989 0.97039,0.33065 1.36524,0.68537 1.59577,1.11156 v 10.55905 c 0,3.44692 2.81471,6.26215 6.26163,6.26215 h 35.14256 c 3.44692,0 6.26163,-2.81523 6.26163,-6.26215 v -18.41593 c 0.26804,-0.13887 0.6094,-0.2815 1.03766,-0.46044 1.16018,-0.48476 2.71555,-1.03356 3.45664,-1.21956 1.53567,-0.38543 2.94868,-1.83861 2.36006,-2.42724 -0.21678,-0.21677 -2.26994,0.0927 -4.56251,0.68729 -0.83633,0.21692 -1.62552,0.40546 -2.29443,0.55191 -0.0952,-3.36502 -2.87186,-6.08284 -6.25905,-6.08284 h -35.14256 c -3.44692,0 -6.26163,2.81472 -6.26163,6.26164 v 7.56491 c -3.08572,-1.13179 -6.320145,-1.41957 -9.222696,-0.817 -1.1425,0.23718 -1.943908,0.0139 -2.519226,-0.38448 v -6.36343 c 0,-3.44692 -2.815229,-6.26164 -6.26215,-6.26164 z m 0,2.59571 h 35.142558 c 2.054178,0 3.667993,1.61175 3.667993,3.66593 v 21.10517 c 0,2.05418 -1.613815,3.66644 -3.667993,3.66644 H 52.72443 c -2.054176,0 -3.665926,-1.61226 -3.665926,-3.66644 v -21.10517 c 0,-2.05418 1.61175,-3.66593 3.665926,-3.66593 z m 59.40826,0 h 35.14256 c 2.05418,0 3.66592,1.61175 3.66592,3.66593 v 21.10517 c 0,2.05418 -1.61174,3.66644 -3.66592,3.66644 h -35.14256 c -2.05418,0 -3.66799,-1.61226 -3.66799,-3.66644 v -21.10517 c 0,-2.05418 1.61381,-3.66593 3.66799,-3.66593 z" /></g></g></g></svg>
