<?xml version="1.0" encoding="UTF-8" standalone="no"?>
<!-- Created with Inkscape (http://www.inkscape.org/) -->

<svg
   width="200mm"
   height="300mm"
   viewBox="0 0 200 300"
   version="1.1"
   id="svg1"
   xml:space="preserve"
   xmlns:xlink="http://www.w3.org/1999/xlink"
   xmlns="http://www.w3.org/2000/svg"
   xmlns:svg="http://www.w3.org/2000/svg"><defs
     id="defs1" /><g
     id="layer4"
     style="display:inline"><g
       id="g22"
       style="display:inline"><g
         id="g25"
         style="display:inline"><path
           id="path25"
           style="display:inline;opacity:1;fill:#ffffff;fill-opacity:0.163218;stroke:none;stroke-width:1.76961"
           d="m 54.288821,108.13454 c -6.719107,9.16443 -9.41928,19.10671 -1.430305,31.11787 20.867739,12.88814 25.167756,3.32178 31.846382,1.07273 10.850969,-13.50715 4.295095,-24.22168 0.357577,-31.29666 -10.257885,-8.86954 -20.51577,-7.22854 -30.773654,-0.89394 z m 61.616749,-0.17879 c -9.48726,9.14465 -7.97364,19.9561 -1.78788,31.47545 9.66946,6.14401 19.64497,10.14574 31.66708,-0.17879 6.91302,-8.69545 8.12602,-18.85662 -1.60909,-31.83302 -7.46345,-2.60636 -12.29321,-8.955343 -28.27011,0.53636 z" /><path
           id="path26"
           style="display:inline;opacity:1;fill:#ffffff;fill-opacity:0.147126;stroke-width:1.77644"
           d="m 70.467749,102.89905 -16.54996,36.21282 2.3456,1.90532 22.006719,-36.33026 z m -13.008526,3.06824 -9.599376,19.68033 2.390862,9.12864 2.48312,3.14149 13.850691,-34.72167 z" /><use
           x="0"
           y="0"
           xlink:href="#path26"
           id="use26"
           style="display:inline"
           transform="translate(60.429836,0.2528445)" /><path
           style="display:inline;fill:#000000"
           d="m 62.857813,145.98612 c -6.870816,-2.27539 -11.269761,-6.05719 -14.172715,-12.18437 -1.668871,-3.52243 -1.885844,-4.59952 -1.993376,-9.89542 -0.120666,-5.94275 -0.120666,-5.94275 -3.714219,-7.37357 -1.976453,-0.78695 -3.593552,-1.78979 -3.593552,-2.22853 0,-1.03322 0.665333,-1.00601 4.975773,0.20343 2.691792,0.75528 3.626796,0.82494 3.80723,0.28364 0.663544,-1.99064 4.421555,-6.58569 6.97108,-8.52379 13.433317,-10.211764 34.2081,-2.48908 37.011334,13.75835 0.479332,2.77819 0.27342,2.69499 4.498739,1.81782 2.986618,-0.62002 6.324923,-0.29728 9.490713,0.91755 0.76072,0.29192 0.99248,0.0408 0.99248,-1.07539 0,-4.29296 3.98151,-11.67449 8.04117,-14.90795 4.54034,-3.61631 8.33693,-4.85973 14.83842,-4.85973 5.20825,0 6.36401,0.19743 9.35119,1.59742 5.58812,2.61897 7.99113,4.93201 12.15879,11.70354 0.0768,0.1248 2.01539,-0.25959 4.30796,-0.8542 2.29257,-0.59462 4.34567,-0.90376 4.56245,-0.68699 0.58862,0.58863 -0.82428,2.04183 -2.35995,2.42726 -0.74109,0.186 -2.29666,0.73479 -3.45684,1.21955 -2.10942,0.88137 -2.10942,0.88137 -1.6331,3.89456 1.4756,9.33455 -4.12108,19.5164 -13.02088,23.68847 -2.98074,1.39731 -4.09759,1.58101 -9.61249,1.58101 -5.74923,0 -6.54362,-0.14474 -10.10267,-1.84072 -6.74669,-3.21497 -11.13716,-8.79453 -12.5822,-15.98991 -0.62241,-3.09923 -0.73413,-3.23696 -3.34798,-4.12759 -3.54887,-1.20922 -7.053041,-1.16565 -9.614938,0.11954 -1.753797,0.8798 -2.139846,1.44893 -2.518768,3.71329 -1.155263,6.90361 -6.301924,13.47373 -12.941089,16.52032 -3.957232,1.8159 -12.456806,2.38925 -16.342562,1.10241 z m 16.06728,-3.32655 c 4.365676,-2.14921 7.531486,-5.43299 9.703357,-10.06493 2.24795,-4.7942 2.250601,-12.00804 0.0061,-16.71102 -4.331615,-9.07634 -14.764148,-14.0686 -24.312665,-11.63428 -9.646824,2.45938 -15.632612,9.84756 -15.685045,19.35985 -0.03339,6.05703 1.36792,9.86767 5.15075,14.00669 6.75373,7.38966 16.42887,9.33092 25.137463,5.04369 z m 60.544987,0.035 c 4.27308,-2.10363 7.75958,-5.62775 9.93546,-10.04267 2.13006,-4.32193 2.01392,-12.25974 -0.24673,-16.86315 -2.25417,-4.59023 -5.72179,-7.98078 -10.43667,-10.20472 -8.22466,-3.87945 -17.91816,-1.86845 -24.09172,4.99804 -3.90541,4.34374 -5.29871,8.48036 -4.98834,14.80996 0.27926,5.6948 1.42929,8.54031 5.08866,12.59079 6.37376,7.05499 16.18418,8.92344 24.73934,4.71175 z"
           id="path2" /></g></g></g></svg>
