<?xml version="1.0" encoding="UTF-8" standalone="no"?>
<!-- Created with Inkscape (http://www.inkscape.org/) -->

<svg
   width="200mm"
   height="300mm"
   viewBox="0 0 200 300"
   version="1.1"
   id="svg1"
   xml:space="preserve"
   xmlns="http://www.w3.org/2000/svg"
   xmlns:svg="http://www.w3.org/2000/svg"><defs
     id="defs1" /><g
     id="layer1"><g
       id="g15"
       style="display:inline"><path
         id="path29"
         style="display:inline;opacity:1;fill:#1a1a1a;fill-opacity:1;stroke:none;stroke-width:2.595;stroke-dasharray:none;stroke-opacity:1"
         d="m 168.53545,177.24603 c -7.5081,-14.17164 -0.0166,-26.46833 0,-39.69939 -0.56371,0.72005 -1.16764,1.41013 -1.81023,2.06086 -0.37164,0.37635 -0.732,0.72982 -1.08313,1.06143 v -27.68306 c 0.98028,-0.0969 1.96478,-0.0316 2.89336,0.19327 V 96.564132 c 0,-53.811863 -35.67146,-64.429519 -43.25614,-62.66703 -4.61612,-6.120794 -18.76553,-5.439702 -25.821815,-5.506587 -67.967808,0 -69.439172,51.896182 -69.439172,68.535352 v 16.529743 l 0.765328,-0.64389 2.717663,0.23771 c 0.28379,0.0248 0.572313,0.0529 0.856796,0.0832 v 27.92956 c -1.617642,-1.4039 -3.09167,-3.12492 -4.339787,-5.06429 3.853869,20.93159 6.59747,39.79404 0,41.24813 21.232165,22.33999 46.195613,18.88392 51.662479,18.88392 v -13.22348 c -6.519144,-2.53981 -12.749233,-6.32795 -18.014404,-11.15385 -4.51577,-4.13901 -8.702047,-9.72555 -11.948625,-15.84399 v -40.17646 c 18.434679,-5.90404 35.04979,-14.84069 46.292948,-32.730593 -2.345227,6.083185 -19.807435,25.243233 -29.479957,33.453893 16.439646,-9.1356 35.239346,-27.905984 41.390766,-47.041034 10.89526,28.555745 38.36038,38.361134 38.36038,38.361134 v 2e-4 47.92325 c -6.64968,12.62585 -16.85912,21.88377 -29.75581,27.01127 v 13.41366 c 6.8661,0 43.95666,-7.02525 50.00935,-18.87792 z" /></g></g></svg>
