<?xml version="1.0" encoding="UTF-8" standalone="no"?>
<!-- Created with Inkscape (http://www.inkscape.org/) -->

<svg
   width="200mm"
   height="300mm"
   viewBox="0 0 200 300"
   version="1.1"
   id="svg1"
   xml:space="preserve"
   xmlns="http://www.w3.org/2000/svg"
   xmlns:svg="http://www.w3.org/2000/svg"><defs
     id="defs1" /><g
     id="layer1"><g
       id="g55"
       style="display:inline"><path
         id="path47"
         style="display:inline;opacity:1;fill:#1a1a1a;fill-opacity:1;stroke:none;stroke-width:2.595;stroke-dasharray:none;stroke-opacity:1"
         d="m 99.457495,28.390515 c -67.967808,0 -69.439172,51.896182 -69.439172,68.535352 v 16.529743 l 0.765328,-0.64389 2.717663,0.23771 c 0.28379,0.0248 0.572313,0.0529 0.856796,0.0832 v 27.92956 c -1.617642,-1.4039 -3.09167,-3.12492 -4.339787,-5.06429 v 84.97879 c 39.885983,28.71045 109.787537,23.92007 138.517127,0 v -83.43005 c -0.56371,0.72005 -1.16764,1.41013 -1.81023,2.06086 -0.37164,0.37635 -0.732,0.72982 -1.08313,1.06143 v -27.68306 c 0.98028,-0.0969 1.96478,-0.0316 2.89336,0.19327 V 96.564132 c 0,-53.811863 -35.67146,-64.429519 -43.25614,-62.66703 -4.61612,-6.120794 -18.76553,-5.439702 -25.821815,-5.506587 z m 48.824415,79.385255 v 47.92325 c -6.64968,12.62585 -16.85912,21.88377 -29.75581,27.01127 v 13.41366 8.72504 l -1.35341,2.01952 c -1.74126,2.59885 -6.26184,5.62631 -10.10481,6.76755 -7.293956,2.16607 -17.083676,0.22436 -22.022942,-4.36821 -3.041704,-2.8282 -3.364136,-4.08695 -3.364136,-13.1377 v -13.22348 c -6.519144,-2.53981 -12.749233,-6.32795 -18.014404,-11.15385 -4.51577,-4.13901 -8.702047,-9.72555 -11.948625,-15.84399 v -40.17646 c 18.434679,-5.90404 35.04979,-14.84069 46.292948,-32.730593 -2.089492,6.466787 -3.302538,9.534365 -10.673447,22.603983 12.220021,-7.856929 21.803266,-27.285467 22.584256,-36.191124 10.89526,28.555745 38.36038,38.361134 38.36038,38.361134 z" /></g></g></svg>
