<?xml version="1.0" encoding="UTF-8" standalone="no"?>
<!-- Created with Inkscape (http://www.inkscape.org/) -->

<svg
   width="200mm"
   height="300mm"
   viewBox="0 0 200 300"
   version="1.1"
   id="svg1"
   xml:space="preserve"
   xmlns="http://www.w3.org/2000/svg"
   xmlns:svg="http://www.w3.org/2000/svg"><defs
     id="defs1" /><g
     id="layer1"><g
       id="g55"
       style="display:inline"><path
         style="display:inline;fill:#1a1a1a;fill-opacity:1;stroke:none;stroke-width:1.895"
         d="M 84.561619,31.973221 C 25.136382,46.603864 34.577473,103.55735 36.240693,116.07527 c 1.461757,19.91466 6.325873,36.22091 12.342847,59.08809 0,0 -4.548881,-61.12477 -1.313069,-70.38048 C 50.544841,95.416884 67.449193,83.326693 69.067409,85.349463 64.82531,91.118908 57.825062,96.336722 51.209678,101.63151 91.89784,96.529625 104.25765,77.996276 104.25765,77.996276 101.23891,83.094702 98.300725,88.152848 82.723325,99.530603 103.7581,96.278198 115.22548,83.874375 125.00414,69.855251 c 3.84414,14.845078 13.78646,26.91825 22.84739,39.392059 -2.45089,-7.61562 -5.24568,-16.132238 -4.3106,-20.361896 3.35645,9.025743 7.0251,15.553906 10.87594,20.624506 0.23674,22.2593 -1.1815,43.8566 -3.41398,65.12821 5.93998,-10.56823 10.48464,-37.88032 14.96899,-65.91605 7.74164,2.37176 14.13851,0.0817 18.90819,-3.67659 C 176.92,103.65183 165.30037,88.870143 166.40152,73.854975 167.4128,60.065228 167.07402,12.545195 133.67039,4.2018196 91.429826,-18.285388 78.90628,21.506564 84.561619,31.973221 Z"
         id="path16" /><path
         style="display:inline;mix-blend-mode:multiply;fill:#545454;fill-opacity:1"
         d="M 35.259522,116.25656 C 34.067269,113.12069 33.239938,102.21181 33.586751,94.2 34.691861,68.670618 47.714012,47.682509 68.857924,37.352618 73.679868,34.996849 81.615545,32.4 83.992562,32.4 c 0.614174,0 2.209538,-0.935445 3.545252,-2.078766 7.246868,-6.20305 21.265706,-5.934394 28.062186,0.537781 1.29204,1.230392 3.00418,2.160062 4.45009,2.416355 1.29255,0.229108 4.39755,1.228866 6.9,2.221684 15.12854,6.002072 27.89507,18.630723 34.23877,33.868981 3.58265,8.605892 4.90784,14.760262 5.24692,24.367381 0.31594,8.951244 -1.30337,21.496254 -1.65892,22.926584 0.49739,-9.08369 2.21172,-15.6856 -0.23466,-30.534302 C 161.04529,64.900506 149.17093,48.021953 131.5,39.158538 116.89683,31.833857 96.208018,30.258632 79.067185,35.166356 56.183201,41.718445 39.553366,61.288469 35.78578,86.1 c -0.930672,6.128959 -0.916866,17.55888 0.0303,25.08377 0.739592,5.87581 0.517699,7.89828 -0.556554,5.07279 z M 111.09429,21.681905 c 0.98686,-1.071826 3.53622,-2.806329 5.66526,-3.85445 3.41192,-1.679684 4.58662,-1.931752 9.90571,-2.125577 7.06776,-0.257544 11.65307,0.725476 17.68279,3.790919 3.98621,2.026546 6.74916,3.85291 5.882,3.888121 -0.25847,0.01049 -1.80084,-0.655337 -3.4275,-1.479626 -1.62666,-0.824289 -5.06018,-2.197551 -7.63005,-3.051692 -8.27161,-2.749209 -19.31129,-1.934657 -25.19041,1.858649 -0.76015,0.490463 -2.12459,1.348654 -3.03209,1.907091 l -1.65,1.015341 z M 102.67263,21.15 c 0.87236,-3.574235 3.35992,-8.014132 5.93015,-10.584362 5.118,-5.1179966 14.10652,-8.2939188 20.54075,-7.2576817 l 2.95647,0.476142 -5.82144,0.763672 c -10.25825,1.3457043 -17.51201,6.2040767 -21.56999,14.4470037 -2.0121,4.087167 -2.68005,4.794247 -2.03594,2.155226 z"
         id="path15" /></g></g></svg>
