<?xml version="1.0" encoding="UTF-8" standalone="no"?>
<!-- Created with Inkscape (http://www.inkscape.org/) -->

<svg
   width="200mm"
   height="300mm"
   viewBox="0 0 200 300"
   version="1.1"
   id="svg1"
   xml:space="preserve"
   xmlns="http://www.w3.org/2000/svg"
   xmlns:svg="http://www.w3.org/2000/svg"><defs
     id="defs1" /><g
     id="layer1"><g
       id="g15"
       style="display:inline"><path
         id="path21"
         style="display:inline;opacity:1;fill:#1a1a1a;fill-opacity:1;stroke:none;stroke-width:2.595;stroke-dasharray:none;stroke-opacity:1"
         d="m 99.457495,28.390515 c -67.967808,0 -67.355863,52.027118 -69.439172,68.535352 -0.583951,4.627253 2.084561,10.212243 -4.922654,16.408533 0.214322,0.54517 3.87882,0.31832 4.922654,0.12121 l 3.482991,-0.40618 c 0.28379,0.0248 0.572313,0.0529 0.856796,0.0832 -0.113082,9.02941 -5.346604,5.36013 0,27.92956 -1.617642,-1.4039 -3.09167,-3.12492 -4.339787,-5.06429 0,0 4.547299,9.4341 3.324553,15.90858 -1.222746,6.47449 -10.491134,9.01564 -10.428094,21.75367 0.06304,12.73803 14.731402,17.26716 14.987116,27.35668 0.255714,10.08952 -7.883575,19.95986 -7.883575,19.95986 11.304954,8.13745 27.812323,-1.48071 41.317904,4.64632 23.377161,10.60543 76.612513,12.49404 97.199223,-4.64632 -12.34125,2.22143 -7.15274,-12.55929 -6.81796,-18.59124 0.33478,-6.03195 -12.3307,-3.35156 -12.5304,-13.13051 -0.1997,-9.77894 24.75094,-20.12888 26.76467,-30.44362 2.01373,-10.31473 -7.41631,-21.26468 -7.41631,-21.26468 -0.56371,0.72005 -1.16764,1.41013 -1.81023,2.06086 -0.37164,0.37635 -0.732,0.72982 -1.08313,1.06143 -8.57206,-6.06956 -0.0568,-18.43446 0,-27.68306 0.98028,-0.0969 1.96478,-0.0316 2.89336,0.19327 2.4682,-5.53834 0.68738,-11.07667 0,-16.615008 C 161.90756,43.162001 140.45893,33.762099 125.27931,35.343757 121.74818,26.691317 106.51378,28.4574 99.457495,28.390515 Z m 48.824415,79.385255 c -2.93921,9.16711 4.64448,12.53612 3.86824,19.86172 -1.15522,10.90219 -7.70598,22.98447 -3.86824,28.06153 -6.64968,12.62585 -16.85912,21.88377 -29.75581,27.01127 v 13.41366 8.72504 l -1.35341,2.01952 c -1.74126,2.59885 -6.26184,5.62631 -10.10481,6.76755 -7.293956,2.16607 -17.083676,0.22436 -22.022942,-4.36821 -3.041704,-2.8282 -3.364136,-4.08695 -3.364136,-13.1377 v -13.22348 c -6.519144,-2.53981 -12.749233,-6.32795 -18.014404,-11.15385 -4.51577,-4.13901 -8.702047,-9.72555 -11.948625,-15.84399 3.216898,-11.82409 -15.536712,-35.42161 0,-40.17646 18.434679,-5.90404 58.688587,-31.80629 58.203757,-46.317734 10.89526,28.555745 38.36038,38.361134 38.36038,38.361134 z" /></g></g></svg>
