<?xml version="1.0" encoding="UTF-8" standalone="no"?>
<!-- Created with Inkscape (http://www.inkscape.org/) -->

<svg
   width="200mm"
   height="300mm"
   viewBox="0 0 200 300"
   version="1.1"
   id="svg1"
   xml:space="preserve"
   xmlns="http://www.w3.org/2000/svg"
   xmlns:svg="http://www.w3.org/2000/svg"><defs
     id="defs1"><filter
       style="color-interpolation-filters:sRGB"
       id="filter13"
       x="-1.7977388e-05"
       y="0"
       width="1.000036"
       height="1"><feGaussianBlur
         stdDeviation="0.001 0"
         id="feGaussianBlur13" /></filter></defs><g
     id="layer1"><g
       id="g15"
       style="display:inline"><path
         style="display:inline;opacity:1;fill:#000000;stroke-width:1.08869"
         d="m 156.31258,134.02508 c -1.25829,0.12675 0.0971,-19.68776 -1.65164,-23.9477 -4.05601,-9.88014 -5.49713,-18.011215 -5.9928,-23.062004 -0.77094,-7.855682 -1.83469,-10.501259 -4.89569,-12.175892 l -2.20975,-1.208928 -9.83601,2.010399 c -23.8224,4.869107 -38.980297,4.888523 -63.213954,0.08096 -13.123789,-2.603544 -14.620517,-1.634859 -15.566868,10.074909 -0.504854,6.24686 -1.950217,10.361457 -4.969491,17.033696 -7.314811,16.16485 -1.500307,31.08623 -4.033847,31.0742 -2.533539,-0.012 -2.464712,-15.208 -4.249823,-16.62872 -1.78511,-1.42072 -4.055784,-1.25292 -4.608625,-8.61745 -0.583446,-7.77221 -0.552771,-27.344447 0.826845,-34.616146 1.207653,-6.365318 3.520228,-12.290298 6.557544,-16.800889 1.092343,-1.622193 1.843234,-3.510538 1.843234,-4.635374 0,-2.453859 2.06039,-4.563932 5.442972,-5.574222 3.053976,-0.912142 3.480263,-1.398243 3.492515,-3.98256 0.0067,-1.395893 0.514092,-2.360122 1.843806,-3.503336 1.605347,-1.380185 2.376183,-1.57735 6.166845,-1.57735 h 4.332169 L 66.29506,35.56426 c 1.028419,-3.507202 3.083839,-4.910163 7.16707,-4.892 1.841594,0.0081 4.522497,0.291485 5.957559,0.62954 2.587371,0.609501 2.62655,0.593946 4.681238,-1.858699 2.613294,-3.119441 4.783257,-4.270813 8.034871,-4.263266 2.629841,0.006 7.303366,1.953834 9.992842,4.164576 l 1.46585,1.204924 2.90386,-1.503505 c 3.16213,-1.637223 7.75026,-2.438745 10.26642,-1.793496 0.87568,0.224559 2.85971,1.619741 4.40896,3.100396 l 2.81682,2.692103 2.89136,-0.889095 c 1.59025,-0.489003 4.17094,-0.889095 5.73484,-0.889095 3.25643,0 4.89941,1.504185 5.55741,5.087955 0.36771,2.002695 0.46316,2.061401 3.95829,2.434659 1.96983,0.210365 4.36077,0.794221 5.31322,1.297458 1.77899,0.939967 2.04625,1.467365 2.67249,5.274008 0.28043,1.704645 0.9099,2.582253 2.73938,3.819272 1.45175,0.981623 2.92037,2.726897 3.77723,4.488831 0.77108,1.585519 2.50159,4.801981 3.84556,7.147693 6.12179,10.684655 7.77984,24.977973 5.16494,44.524561 -0.45177,3.3771 -0.62137,7.55776 -1.85977,8.73842 -2.83933,2.70694 -3.78768,3.61052 -4.27427,8.47681 -0.48659,4.86628 -1.94037,11.34202 -3.19865,11.46877 z"
         id="path14" /><path
         style="display:none;opacity:1;fill:#000000;filter:url(#filter13)"
         d="m 152.27197,109.9965 c -1.13175,-3.86225 -3.20995,-8.23563 -4.00717,-10.51744 -0.79721,-2.281806 -1.69721,-6.183776 -2,-8.671045 -0.30278,-2.487269 -0.80846,-6.62958 -1.12373,-9.205135 -0.63028,-5.149012 -1.87355,-8.102701 -4.115,-9.776184 -2.63695,-1.968762 -5.70126,-1.843027 -16.17649,0.663757 -12.58208,3.010965 -15.8395,3.500007 -23.34767,3.505225 -7.114012,0.0049 -15.128658,-1.05755 -25.787624,-3.418638 -10.867542,-2.407289 -10.965113,-2.421815 -13.448533,-2.002244 -2.842761,0.480281 -5.235463,2.783159 -6.185159,5.952965 -0.391333,1.30615 -1.073809,5.771736 -1.516614,9.923525 -0.829128,7.773984 -1.889962,12.263552 -3.769872,15.954514 -0.593902,1.16605 -1.030222,2.20955 -1.080192,2.28571 -4.842169,7.38011 -1.716315,25.90077 -3.124404,27.80241 -0.954566,1.28915 -3.060908,-7.69427 -3.358237,-11.53931 -0.225144,-4.13287 -0.745873,-4.57467 -2.529838,-5.57688 -1.504286,-0.84509 -1.690169,-1.35955 -2.684041,-7.42857 -1.274634,-7.78347 -1.409906,-23.338667 -0.267899,-30.806309 0.983304,-6.429872 0.943661,-7.024495 -0.789604,-11.843681 -2.206117,-6.133908 -2.93323,-12.749846 -2.140232,-19.473786 0.358396,-3.038887 0.875534,-5.749153 1.149195,-6.022814 0.282469,-0.282469 2.488517,0.270226 5.103064,1.278502 4.684996,1.806726 6.356651,2.149839 6.356651,1.304726 0,-0.259238 -0.651143,-2.380666 -1.446986,-4.714285 -1.574182,-4.615916 -3.310789,-13.479133 -2.802245,-14.301974 0.479093,-0.775188 1.507018,-0.639682 6.814204,0.89828 6.370034,1.845964 16.669682,2.616704 17.180458,1.285644 0.44919,-1.170572 -1.501778,-5.537276 -4.072935,-9.116139 -1.120488,-1.559637 -1.912995,-3.159505 -1.761129,-3.555263 0.332127,-0.865508 2.357073,-1.306694 8.239339,-1.795149 12.180553,-1.011458 28.276728,3.944958 37.677213,11.601757 1.65719,1.349802 3.17872,2.454186 3.38118,2.454186 0.33926,0 0.25338,-0.926726 -0.72809,-7.857142 -0.24426,-1.724822 -0.14069,-2.428571 0.35742,-2.428571 0.38574,0 2.66918,1.029935 5.07432,2.288744 7.449,3.898694 14.70818,10.921914 18.34876,17.752344 0.99303,1.863115 2.09496,3.387481 2.44873,3.387481 0.35377,0 1.81726,-0.578571 3.2522,-1.285714 2.16324,-1.06605 3.55738,-1.285714 8.16001,-1.285714 4.40522,0 5.74639,0.195367 6.49751,0.946485 0.88102,0.881027 0.71602,1.058863 -2.38591,2.571428 -1.83282,0.893719 -3.41871,1.918109 -3.52419,2.276422 -0.10549,0.358313 1.01333,1.062108 2.48627,1.563988 6.89907,2.350749 12.14317,7.37528 15.10885,14.476237 1.49364,3.576351 1.91395,5.482435 2.13858,9.69851 0.38735,7.270044 0.0989,7.799963 -2.73811,5.029727 -1.24074,-1.211554 -2.41778,-2.040949 -2.61563,-1.843099 -0.19785,0.19785 -0.0312,2.623999 0.37041,5.391442 1.02415,7.057839 0.87395,21.86676 -0.30893,30.460287 -0.95863,6.96439 -0.92672,7.36946 -3.13145,8.79568 -2.08433,1.34834 -2.41178,3.41851 -2.72714,7.67497 -0.31537,4.25647 -1.55665,8.83258 -2.9484,10.00367 0,0 -0.36917,-18.90127 -1.50091,-22.76353 z"
         id="path13"
         transform="matrix(1.04807,0,0,1.04807,-4.8675256,-5.0417186)" /><path
         style="display:none;opacity:1;fill:#000000"
         d="m 42.241783,130.12761 c -0.870758,-2.92358 -1.771899,-6.8006 -2.002535,-8.6156 -0.338763,-2.6659 -0.803236,-3.66477 -2.417209,-5.19831 -1.742807,-1.65596 -2.118395,-2.57516 -2.941937,-7.2 -1.802343,-10.121574 -1.755784,-29.213187 0.08917,-36.564068 0.487961,-1.944193 -0.230099,-1.826702 -4.544992,0.743666 -2.013948,1.199703 -3.751778,2.077203 -3.861844,1.95 -0.110067,-0.127203 0.152787,-1.925572 0.584118,-3.996375 1.660277,-7.970921 6.892558,-16.008308 14.171381,-21.768878 1.549864,-1.226585 2.652364,-2.395726 2.45,-2.59809 -0.202364,-0.202364 -2.368651,-0.367935 -4.81397,-0.367935 H 34.50793 l 1.696035,-1.426136 C 39.389815,42.407016 47.802878,37.03202 53.05478,34.320118 59.851468,30.810542 63.613114,29.350579 70.26952,27.638764 L 75.7,26.242218 71.669738,24.380095 c -2.216644,-1.024168 -5.254144,-2.189461 -6.75,-2.589542 C 63.423882,21.390473 62.2,20.884713 62.2,20.666642 c 0,-0.21807 1.5525,-0.830307 3.45,-1.360525 17.766917,-4.96461 45.89242,-1.294662 65.7,8.572844 3.2175,1.602857 5.85,2.660253 5.85,2.349769 0,-0.935979 -2.41987,-5.396799 -4.96465,-9.151883 l -2.39574,-3.535173 1.73019,0.400713 c 3.59128,0.831737 11.68203,5.305389 14.87862,8.226888 4.21882,3.855768 8.27006,9.939528 9.95053,14.942745 0.72046,2.145 1.38261,3.974687 1.47146,4.065972 0.0888,0.09128 1.57648,-0.786215 3.30586,-1.95 1.72937,-1.163785 3.37572,-2.115972 3.65855,-2.115972 0.28282,0 -0.2841,1.6875 -1.25982,3.75 -0.97573,2.0625 -1.77427,4.139435 -1.77453,4.615411 -2.6e-4,0.475975 1.45055,2.248547 3.22403,3.939047 1.77347,1.690501 4.06397,4.541066 5.08999,6.33459 1.88651,3.29767 3.94925,10.827333 3.5841,13.083095 -0.18758,1.158765 -0.38158,1.112511 -3.49859,-0.834124 -4.37263,-2.730792 -4.76021,-2.687359 -4.12259,0.461981 0.9814,4.847356 1.2959,19.208398 0.58143,26.549996 -1.06782,10.972564 -2.10236,15.195614 -4.17612,17.047094 -1.43751,1.28344 -1.8636,2.33374 -2.45554,6.0529 -0.90314,5.67431 -3.06143,12.80726 -3.68474,12.17771 -0.26014,-0.26274 -0.64033,-4.66271 -0.84486,-9.77771 -0.43112,-10.78153 -1.36183,-16.35431 -3.88679,-23.27287 -1.80976,-4.95886 -3.60382,-14.03922 -3.60838,-18.263288 -0.002,-1.664704 -0.3524,-2.465488 -1.37192,-3.133507 -0.75323,-0.493536 -6.08573,-2.095953 -11.85,-3.560925 -5.76427,-1.464973 -11.26044,-2.964949 -12.2137,-3.33328 -0.95327,-0.368332 -1.84907,-0.55384 -1.99067,-0.412241 -0.26826,0.268264 5.03167,4.124655 10.49588,7.637118 l 3.17201,2.039003 -3.77201,0.188095 c -7.35131,0.36658 -20.84425,-2.854753 -28.87663,-6.89407 l -4.104626,-2.064132 1.104628,1.888192 c 1.119977,1.914428 4.186618,4.952733 8.004628,7.93067 l 2.1,1.637938 -3.62394,0.0067 C 97.36191,84.91953 89.207698,81.559212 82.874911,75.756362 80.74371,73.803504 79,72.584165 79,73.046721 c 0,0.462555 1.196801,3.186475 2.659558,6.053155 1.462756,2.866679 2.456762,5.212144 2.2089,5.212144 -0.247861,0 -1.917162,-0.431014 -3.709557,-0.95781 -5.468767,-1.607302 -11.416307,-5.111164 -15.907087,-9.371309 l -4.248186,-4.03001 -2.170457,2.229564 c -3.454616,3.548696 -5.038831,7.819992 -5.834062,15.729565 -0.548787,5.458383 -1.308316,8.728299 -3.635326,15.65076 l -2.941598,8.75077 -0.39914,10.44923 c -0.219527,5.74708 -0.578898,10.95125 -0.798603,11.56483 -0.278634,0.77815 -0.878349,-0.49226 -1.982659,-4.2 z"
         id="path9" /><path
         style="display:none;opacity:1;fill:#000000"
         d="m 42.241783,130.12761 c -0.870758,-2.92358 -1.771899,-6.8006 -2.002535,-8.6156 -0.338763,-2.6659 -0.803236,-3.66477 -2.417209,-5.19831 -1.742807,-1.65596 -2.118395,-2.57516 -2.941937,-7.2 -1.802343,-10.121574 -0.997325,-29.063479 0.08917,-36.564068 1.315237,-9.079707 12.833606,-35.517612 18.085508,-38.229514 6.796688,-3.509576 10.558334,-4.969539 17.21474,-6.681354 60.71371,-14.687854 93.62397,33.015167 95.80789,44.823256 0.9814,4.847356 1.2959,19.208398 0.58143,26.549996 -1.06782,10.972564 -2.10236,15.195614 -4.17612,17.047094 -1.43751,1.28344 -1.8636,2.33374 -2.45554,6.0529 -0.90314,5.67431 -3.06143,12.80726 -3.68474,12.17771 -0.26014,-0.26274 -0.64033,-4.66271 -0.84486,-9.77771 -0.43112,-10.78153 -1.36183,-16.35431 -3.88679,-23.27287 -1.80976,-4.95886 -3.60382,-14.03922 -3.60838,-18.263288 -0.002,-1.664704 -0.3524,-2.465488 -1.37192,-3.133507 -0.75323,-0.493536 -6.08573,-2.095953 -11.85,-3.560925 -5.76427,-1.464973 -11.26044,-2.964949 -12.2137,-3.33328 -0.95327,-0.368332 -1.84907,-0.55384 -1.99067,-0.412241 -0.26826,0.268264 5.03167,4.124655 10.49588,7.637118 l 3.17201,2.039003 -3.77201,0.188095 c -7.35131,0.36658 -20.84425,-2.854753 -28.87663,-6.89407 l -4.104626,-2.064132 1.104628,1.888192 c 1.119977,1.914428 4.186618,4.952733 8.004628,7.93067 l 2.1,1.637938 -3.62394,0.0067 C 97.36191,84.91953 89.207698,81.559212 82.874911,75.756362 80.74371,73.803504 79,72.584165 79,73.046721 c 0,0.462555 1.196801,3.186475 2.659558,6.053155 1.462756,2.866679 2.456762,5.212144 2.2089,5.212144 -0.247861,0 -1.917162,-0.431014 -3.709557,-0.95781 -5.468767,-1.607302 -11.416307,-5.111164 -15.907087,-9.371309 l -4.248186,-4.03001 -2.170457,2.229564 c -3.454616,3.548696 -5.038831,7.819992 -5.834062,15.729565 -0.548787,5.458383 -1.308316,8.728299 -3.635326,15.65076 l -2.941598,8.75077 -0.39914,10.44923 c -0.219527,5.74708 -0.578898,10.95125 -0.798603,11.56483 -0.278634,0.77815 -0.878349,-0.49226 -1.982659,-4.2 z"
         id="path42" /><path
         style="display:none;fill:#eac374;fill-opacity:1;stroke:#000000;stroke-width:1.895"
         d="M 84.561619,31.973221 C 25.136382,46.603864 34.577473,103.55735 36.240693,116.07527 c 1.461757,19.91466 6.325873,36.22091 12.342847,59.08809 0,0 -4.548881,-61.12477 -1.313069,-70.38048 C 50.544841,95.416884 67.449193,83.326693 69.067409,85.349463 64.82531,91.118908 57.825062,96.336722 51.209678,101.63151 91.89784,96.529625 104.25765,77.996276 104.25765,77.996276 101.23891,83.094702 98.300725,88.152848 82.723325,99.530603 103.7581,96.278198 115.22548,83.874375 125.00414,69.855251 c 3.84414,14.845078 13.78646,26.91825 22.84739,39.392059 -2.45089,-7.61562 -5.24568,-16.132238 -4.3106,-20.361896 3.35645,9.025743 7.0251,15.553906 10.87594,20.624506 0.23674,22.2593 -1.1815,43.8566 -3.41398,65.12821 5.93998,-10.56823 10.48464,-37.88032 14.96899,-65.91605 7.74164,2.37176 14.13851,0.0817 18.90819,-3.67659 C 176.92,103.65183 165.30037,88.870143 166.40152,73.854975 167.4128,60.065228 167.07402,12.545195 133.67039,4.2018196 91.429826,-18.285388 78.90628,21.506564 84.561619,31.973221 Z"
         id="path16" /><path
         id="path21"
         style="display:none;opacity:1;fill:#1a1a1a;fill-opacity:1;stroke:none;stroke-width:2.595;stroke-dasharray:none;stroke-opacity:1"
         d="m 99.457495,28.390515 c -67.967808,0 -67.355862,52.027118 -69.439172,68.535352 -0.623499,4.940633 -4.361204,7.037863 0,16.529743 l 0.765328,-0.64389 2.717663,0.23771 c 0.28379,0.0248 0.572313,0.0529 0.856796,0.0832 v 27.92956 c -1.617642,-1.4039 -3.09167,-3.12492 -4.339787,-5.06429 0,0 4.547299,9.4341 3.324553,15.90858 -1.222746,6.47449 -10.491134,9.01564 -10.428094,21.75367 0.06304,12.73803 14.731402,17.26716 14.987116,27.35668 0.255714,10.08952 -7.883575,19.95986 -7.883575,19.95986 11.304954,8.13745 27.812323,-1.48071 41.317904,4.64632 23.377161,10.60543 76.612513,12.49404 97.199223,-4.64632 -12.34125,2.22143 -7.15274,-12.55929 -6.81796,-18.59124 0.33478,-6.03195 -12.3307,-3.35156 -12.5304,-13.13051 -0.1997,-9.77894 24.75094,-20.12888 26.76467,-30.44362 2.01373,-10.31473 -7.41631,-21.26468 -7.41631,-21.26468 -0.56371,0.72005 -1.16764,1.41013 -1.81023,2.06086 -0.37164,0.37635 -0.732,0.72982 -1.08313,1.06143 v -27.68306 c 0.98028,-0.0969 1.96478,-0.0316 2.89336,0.19327 2.4682,-5.53834 0.68738,-11.07667 0,-16.615008 C 161.90756,43.162001 132.86399,32.134613 125.27931,33.897102 120.66319,27.776308 106.51378,28.4574 99.457495,28.390515 Z m 48.824415,79.385255 v 47.92325 c -6.64968,12.62585 -16.85912,21.88377 -29.75581,27.01127 v 13.41366 8.72504 l -1.35341,2.01952 c -1.74126,2.59885 -6.26184,5.62631 -10.10481,6.76755 -7.293956,2.16607 -17.083676,0.22436 -22.022942,-4.36821 -3.041704,-2.8282 -3.364136,-4.08695 -3.364136,-13.1377 v -13.22348 c -6.519144,-2.53981 -12.749233,-6.32795 -18.014404,-11.15385 -4.51577,-4.13901 -8.702047,-9.72555 -11.948625,-15.84399 v -40.17646 c 18.434679,-5.90404 35.04979,-14.84069 46.292948,-32.730593 -2.089492,6.466787 -3.302538,9.534365 -10.673447,22.603983 12.220021,-7.856929 21.803266,-27.285467 22.584256,-36.191124 10.89526,28.555745 38.36038,38.361134 38.36038,38.361134 z" /><path
         id="path47"
         style="display:none;opacity:1;fill:#1a1a1a;fill-opacity:1;stroke:none;stroke-width:2.595;stroke-dasharray:none;stroke-opacity:1"
         d="m 99.457495,28.390515 c -67.967808,0 -69.439172,51.896182 -69.439172,68.535352 v 16.529743 l 0.765328,-0.64389 2.717663,0.23771 c 0.28379,0.0248 0.572313,0.0529 0.856796,0.0832 v 27.92956 c -1.617642,-1.4039 -3.09167,-3.12492 -4.339787,-5.06429 v 84.97879 c 39.885983,28.71045 109.787537,23.92007 138.517127,0 v -83.43005 c -0.56371,0.72005 -1.16764,1.41013 -1.81023,2.06086 -0.37164,0.37635 -0.732,0.72982 -1.08313,1.06143 v -27.68306 c 0.98028,-0.0969 1.96478,-0.0316 2.89336,0.19327 V 96.564132 c 0,-53.811863 -35.67146,-64.429519 -43.25614,-62.66703 -4.61612,-6.120794 -18.76553,-5.439702 -25.821815,-5.506587 z m 48.824415,79.385255 v 47.92325 c -6.64968,12.62585 -16.85912,21.88377 -29.75581,27.01127 v 13.41366 8.72504 l -1.35341,2.01952 c -1.74126,2.59885 -6.26184,5.62631 -10.10481,6.76755 -7.293956,2.16607 -17.083676,0.22436 -22.022942,-4.36821 -3.041704,-2.8282 -3.364136,-4.08695 -3.364136,-13.1377 v -13.22348 c -6.519144,-2.53981 -12.749233,-6.32795 -18.014404,-11.15385 -4.51577,-4.13901 -8.702047,-9.72555 -11.948625,-15.84399 v -40.17646 c 18.434679,-5.90404 35.04979,-14.84069 46.292948,-32.730593 -2.089492,6.466787 -3.302538,9.534365 -10.673447,22.603983 12.220021,-7.856929 21.803266,-27.285467 22.584256,-36.191124 10.89526,28.555745 38.36038,38.361134 38.36038,38.361134 z" /><path
         id="path29"
         style="display:none;opacity:1;fill:#1a1a1a;fill-opacity:1;stroke:none;stroke-width:2.595;stroke-dasharray:none;stroke-opacity:1"
         d="m 168.53545,177.24603 c -7.5081,-14.17164 -0.0166,-26.46833 0,-39.69939 -0.56371,0.72005 -1.16764,1.41013 -1.81023,2.06086 -0.37164,0.37635 -0.732,0.72982 -1.08313,1.06143 v -27.68306 c 0.98028,-0.0969 1.96478,-0.0316 2.89336,0.19327 V 96.564132 c 0,-53.811863 -35.67146,-64.429519 -43.25614,-62.66703 -4.61612,-6.120794 -18.76553,-5.439702 -25.821815,-5.506587 -67.967808,0 -69.439172,51.896182 -69.439172,68.535352 v 16.529743 l 0.765328,-0.64389 2.717663,0.23771 c 0.28379,0.0248 0.572313,0.0529 0.856796,0.0832 v 27.92956 c -1.617642,-1.4039 -3.09167,-3.12492 -4.339787,-5.06429 3.853869,20.93159 6.59747,39.79404 0,41.24813 21.232165,22.33999 46.195613,18.88392 51.662479,18.88392 v -13.22348 c -6.519144,-2.53981 -12.749233,-6.32795 -18.014404,-11.15385 -4.51577,-4.13901 -8.702047,-9.72555 -11.948625,-15.84399 v -40.17646 c 18.434679,-5.90404 35.04979,-14.84069 46.292948,-32.730593 -2.089492,6.466787 -3.302538,9.534365 -10.673447,22.603983 12.220021,-7.856929 21.803266,-27.285467 22.584256,-36.191124 10.89526,28.555745 38.36038,38.361134 38.36038,38.361134 v 2e-4 47.92325 c -6.64968,12.62585 -16.85912,21.88377 -29.75581,27.01127 v 13.41366 c 6.8661,0 43.95666,-7.02525 50.00935,-18.87792 z" /><path
         style="display:none;mix-blend-mode:multiply;fill:#545454;fill-opacity:1"
         d="M 35.259522,116.25656 C 34.067269,113.12069 33.239938,102.21181 33.586751,94.2 34.691861,68.670618 47.714012,47.682509 68.857924,37.352618 73.679868,34.996849 81.615545,32.4 83.992562,32.4 c 0.614174,0 2.209538,-0.935445 3.545252,-2.078766 7.246868,-6.20305 21.265706,-5.934394 28.062186,0.537781 1.29204,1.230392 3.00418,2.160062 4.45009,2.416355 1.29255,0.229108 4.39755,1.228866 6.9,2.221684 15.12854,6.002072 27.89507,18.630723 34.23877,33.868981 3.58265,8.605892 4.90784,14.760262 5.24692,24.367381 0.31594,8.951244 -1.30337,21.496254 -1.65892,22.926584 0.49739,-9.08369 2.21172,-15.6856 -0.23466,-30.534302 C 161.04529,64.900506 149.17093,48.021953 131.5,39.158538 116.89683,31.833857 96.208018,30.258632 79.067185,35.166356 56.183201,41.718445 39.553366,61.288469 35.78578,86.1 c -0.930672,6.128959 -0.916866,17.55888 0.0303,25.08377 0.739592,5.87581 0.517699,7.89828 -0.556554,5.07279 z M 111.09429,21.681905 c 0.98686,-1.071826 3.53622,-2.806329 5.66526,-3.85445 3.41192,-1.679684 4.58662,-1.931752 9.90571,-2.125577 7.06776,-0.257544 11.65307,0.725476 17.68279,3.790919 3.98621,2.026546 6.74916,3.85291 5.882,3.888121 -0.25847,0.01049 -1.80084,-0.655337 -3.4275,-1.479626 -1.62666,-0.824289 -5.06018,-2.197551 -7.63005,-3.051692 -8.27161,-2.749209 -19.31129,-1.934657 -25.19041,1.858649 -0.76015,0.490463 -2.12459,1.348654 -3.03209,1.907091 l -1.65,1.015341 z M 102.67263,21.15 c 0.87236,-3.574235 3.35992,-8.014132 5.93015,-10.584362 5.118,-5.1179966 14.10652,-8.2939188 20.54075,-7.2576817 l 2.95647,0.476142 -5.82144,0.763672 c -10.25825,1.3457043 -17.51201,6.2040767 -21.56999,14.4470037 -2.0121,4.087167 -2.68005,4.794247 -2.03594,2.155226 z"
         id="path15" /><rect
         style="display:none;fill:#d36c41;fill-opacity:1;stroke:#000000;stroke-width:1.895"
         id="rect10"
         width="200"
         height="300"
         x="0"
         y="0" /><rect
         style="display:none;fill:#eac376;fill-opacity:1;stroke:#000000;stroke-width:1.895"
         id="rect13"
         width="200"
         height="300"
         x="-0.12786742"
         y="-2.3016133" /><rect
         style="display:none;fill:#201c15;fill-opacity:1;stroke:#000000;stroke-width:1.895"
         id="rect20"
         width="200"
         height="300"
         x="-0.12786742"
         y="-2.3016133" /></g></g></svg>
