<?xml version="1.0" encoding="UTF-8" standalone="no"?>
<!-- Created with Inkscape (http://www.inkscape.org/) -->

<svg
   width="200mm"
   height="300mm"
   viewBox="0 0 200 300"
   version="1.1"
   id="svg1"
   xml:space="preserve"
   xmlns="http://www.w3.org/2000/svg"
   xmlns:svg="http://www.w3.org/2000/svg"><defs
     id="defs1" /><g
     id="layer1"><g
       id="g15"
       style="display:inline"><path
         id="path18"
         style="display:inline;opacity:1;fill:#1a1a1a;fill-opacity:1;stroke:none;stroke-width:2.595;stroke-dasharray:none;stroke-opacity:1"
         d="m 161.37488,196.93761 c 7.642,-8.94079 9.46218,-43.44656 9.46218,-55.81068 0,-12.36413 0,-19.95848 -2.30161,-44.562798 C 165.07009,59.519281 134.41437,19.179891 98.682889,30.572549 65.687188,18.122243 32.40766,52.867987 30.018323,96.925867 l -1.534409,28.293543 c 0,0 0.268731,51.55054 16.111294,72.22967 1.147516,-2.67754 32.510279,-7.49117 37.085594,-5.41089 v -9.13172 c -6.519144,-2.53981 -12.749233,-6.32795 -18.014404,-11.15385 -4.51577,-4.13901 -8.702047,-9.72555 -11.948625,-15.84399 -2.316757,-12.62495 -2.450376,-26.78431 0,-40.17646 18.434679,-5.90404 25.587602,-17.653773 36.83076,-35.543676 -2.345227,6.083185 -10.600982,23.708826 -20.273504,31.919486 16.439646,-9.1356 22.196871,-22.024085 33.462991,-41.159135 6.27391,8.629311 25.41318,31.017565 41.71438,37.284765 -15.75049,-10.169223 -26.7779,-30.762618 -25.49372,-28.602237 6.909,11.623028 30.32323,28.144197 30.32323,28.144197 v 2e-4 c 3.01632,8.80478 5.16876,33.17124 0,47.92325 -6.64968,12.62585 -16.85912,21.88377 -29.75581,27.01127 v 8.81043 c 6.8661,-4.01963 42.84878,4.35643 42.84878,5.41689 z" /></g></g></svg>
