<?xml version="1.0" encoding="UTF-8" standalone="no"?>
<!-- Created with Inkscape (http://www.inkscape.org/) -->

<svg
   width="200mm"
   height="300mm"
   viewBox="0 0 200 300"
   version="1.1"
   id="svg1"
   xml:space="preserve"
   xmlns="http://www.w3.org/2000/svg"
   xmlns:svg="http://www.w3.org/2000/svg"><defs
     id="defs1" /><g
     id="layer1"><g
       id="g55"
       style="display:inline"><path
         style="display:inline;opacity:1;fill:#000000"
         d="m 42.241783,130.12761 c -0.870758,-2.92358 -1.771899,-6.8006 -2.002535,-8.6156 -0.338763,-2.6659 -0.803236,-3.66477 -2.417209,-5.19831 -1.742807,-1.65596 -2.118395,-2.57516 -2.941937,-7.2 -1.802343,-10.121574 -0.997325,-29.063479 0.08917,-36.564068 1.315237,-9.079707 12.833606,-35.517612 18.085508,-38.229514 6.796688,-3.509576 10.558334,-4.969539 17.21474,-6.681354 60.71371,-14.687854 93.62397,33.015167 95.80789,44.823256 0.9814,4.847356 1.2959,19.208398 0.58143,26.549996 -1.06782,10.972564 -2.10236,15.195614 -4.17612,17.047094 -1.43751,1.28344 -1.8636,2.33374 -2.45554,6.0529 -0.90314,5.67431 -3.06143,12.80726 -3.68474,12.17771 -0.26014,-0.26274 -0.64033,-4.66271 -0.84486,-9.77771 -0.43112,-10.78153 -1.36183,-16.35431 -3.88679,-23.27287 -1.80976,-4.95886 -3.60382,-14.03922 -3.60838,-18.263288 -0.002,-1.664704 -0.3524,-2.465488 -1.37192,-3.133507 -0.75323,-0.493536 -6.08573,-2.095953 -11.85,-3.560925 -5.76427,-1.464973 -11.26044,-2.964949 -12.2137,-3.33328 -0.95327,-0.368332 -1.84907,-0.55384 -1.99067,-0.412241 -0.26826,0.268264 5.03167,4.124655 10.49588,7.637118 l 3.17201,2.039003 -3.77201,0.188095 c -7.35131,0.36658 -20.84425,-2.854753 -28.87663,-6.89407 l -4.104626,-2.064132 1.104628,1.888192 c 1.119977,1.914428 4.186618,4.952733 8.004628,7.93067 l 2.1,1.637938 -3.62394,0.0067 C 97.36191,84.91953 89.207698,81.559212 82.874911,75.756362 80.74371,73.803504 79,72.584165 79,73.046721 c 0,0.462555 1.196801,3.186475 2.659558,6.053155 1.462756,2.866679 2.456762,5.212144 2.2089,5.212144 -0.247861,0 -1.917162,-0.431014 -3.709557,-0.95781 -5.468767,-1.607302 -11.416307,-5.111164 -15.907087,-9.371309 l -4.248186,-4.03001 -2.170457,2.229564 c -3.454616,3.548696 -5.038831,7.819992 -5.834062,15.729565 -0.548787,5.458383 -1.308316,8.728299 -3.635326,15.65076 l -2.941598,8.75077 -0.39914,10.44923 c -0.219527,5.74708 -0.578898,10.95125 -0.798603,11.56483 -0.278634,0.77815 -0.878349,-0.49226 -1.982659,-4.2 z"
         id="path42" /></g></g></svg>
