<?xml version="1.0" encoding="UTF-8" standalone="no"?>
<!-- Created with Inkscape (http://www.inkscape.org/) -->

<svg
   width="200mm"
   height="300mm"
   viewBox="0 0 200 300"
   version="1.1"
   id="svg1"
   xml:space="preserve"
   xmlns="http://www.w3.org/2000/svg"
   xmlns:svg="http://www.w3.org/2000/svg"><defs
     id="defs1" /><g
     id="layer1"><g
       id="g55"
       style="display:inline"><path
         style="display:inline;opacity:1;fill:#000000"
         d="m 42.241783,130.12761 c -0.870758,-2.92358 -1.771899,-6.8006 -2.002535,-8.6156 -0.338763,-2.6659 -0.803236,-3.66477 -2.417209,-5.19831 -1.742807,-1.65596 -2.118395,-2.57516 -2.941937,-7.2 -1.802343,-10.121574 -1.755784,-29.213187 0.08917,-36.564068 0.487961,-1.944193 -0.230099,-1.826702 -4.544992,0.743666 -2.013948,1.199703 -3.751778,2.077203 -3.861844,1.95 -0.110067,-0.127203 0.152787,-1.925572 0.584118,-3.996375 1.660277,-7.970921 6.892558,-16.008308 14.171381,-21.768878 1.549864,-1.226585 2.652364,-2.395726 2.45,-2.59809 -0.202364,-0.202364 -2.368651,-0.367935 -4.81397,-0.367935 H 34.50793 l 1.696035,-1.426136 C 39.389815,42.407016 47.802878,37.03202 53.05478,34.320118 59.851468,30.810542 63.613114,29.350579 70.26952,27.638764 L 75.7,26.242218 71.669738,24.380095 c -2.216644,-1.024168 -5.254144,-2.189461 -6.75,-2.589542 C 63.423882,21.390473 62.2,20.884713 62.2,20.666642 c 0,-0.21807 1.5525,-0.830307 3.45,-1.360525 17.766917,-4.96461 45.89242,-1.294662 65.7,8.572844 3.2175,1.602857 5.85,2.660253 5.85,2.349769 0,-0.935979 -2.41987,-5.396799 -4.96465,-9.151883 l -2.39574,-3.535173 1.73019,0.400713 c 3.59128,0.831737 11.68203,5.305389 14.87862,8.226888 4.21882,3.855768 8.27006,9.939528 9.95053,14.942745 0.72046,2.145 1.38261,3.974687 1.47146,4.065972 0.0888,0.09128 1.57648,-0.786215 3.30586,-1.95 1.72937,-1.163785 3.37572,-2.115972 3.65855,-2.115972 0.28282,0 -0.2841,1.6875 -1.25982,3.75 -0.97573,2.0625 -1.77427,4.139435 -1.77453,4.615411 -2.6e-4,0.475975 1.45055,2.248547 3.22403,3.939047 1.77347,1.690501 4.06397,4.541066 5.08999,6.33459 1.88651,3.29767 3.94925,10.827333 3.5841,13.083095 -0.18758,1.158765 -0.38158,1.112511 -3.49859,-0.834124 -4.37263,-2.730792 -4.76021,-2.687359 -4.12259,0.461981 0.9814,4.847356 1.2959,19.208398 0.58143,26.549996 -1.06782,10.972564 -2.10236,15.195614 -4.17612,17.047094 -1.43751,1.28344 -1.8636,2.33374 -2.45554,6.0529 -0.90314,5.67431 -3.06143,12.80726 -3.68474,12.17771 -0.26014,-0.26274 -0.64033,-4.66271 -0.84486,-9.77771 -0.43112,-10.78153 -1.36183,-16.35431 -3.88679,-23.27287 -1.80976,-4.95886 -3.60382,-14.03922 -3.60838,-18.263288 -0.002,-1.664704 -0.3524,-2.465488 -1.37192,-3.133507 -0.75323,-0.493536 -6.08573,-2.095953 -11.85,-3.560925 -5.76427,-1.464973 -11.26044,-2.964949 -12.2137,-3.33328 -0.95327,-0.368332 -1.84907,-0.55384 -1.99067,-0.412241 -0.26826,0.268264 5.03167,4.124655 10.49588,7.637118 l 3.17201,2.039003 -3.77201,0.188095 c -7.35131,0.36658 -20.84425,-2.854753 -28.87663,-6.89407 l -4.104626,-2.064132 1.104628,1.888192 c 1.119977,1.914428 4.186618,4.952733 8.004628,7.93067 l 2.1,1.637938 -3.62394,0.0067 C 97.36191,84.91953 89.207698,81.559212 82.874911,75.756362 80.74371,73.803504 79,72.584165 79,73.046721 c 0,0.462555 1.196801,3.186475 2.659558,6.053155 1.462756,2.866679 2.456762,5.212144 2.2089,5.212144 -0.247861,0 -1.917162,-0.431014 -3.709557,-0.95781 -5.468767,-1.607302 -11.416307,-5.111164 -15.907087,-9.371309 l -4.248186,-4.03001 -2.170457,2.229564 c -3.454616,3.548696 -5.038831,7.819992 -5.834062,15.729565 -0.548787,5.458383 -1.308316,8.728299 -3.635326,15.65076 l -2.941598,8.75077 -0.39914,10.44923 c -0.219527,5.74708 -0.578898,10.95125 -0.798603,11.56483 -0.278634,0.77815 -0.878349,-0.49226 -1.982659,-4.2 z"
         id="hair" /></g></g></svg>
