<?xml version="1.0" encoding="UTF-8" standalone="no"?>
<!-- Created with Inkscape (http://www.inkscape.org/) -->

<svg
   width="200mm"
   height="300mm"
   viewBox="0 0 200 300"
   version="1.1"
   id="svg1"
   xml:space="preserve"
   xmlns="http://www.w3.org/2000/svg"
   xmlns:svg="http://www.w3.org/2000/svg"><defs
     id="defs1" /><g
     id="layer1"><g
       id="g18"><g
         id="g54"><path
           id="path37"
           style="display:inline;opacity:1;fill:#812d2d;fill-opacity:1;stroke-width:3.07601"
           d="m 120.77846,155.67856 c -3.70705,11.57941 -10.6116,13.23428 -20.778464,13.23428 -10.166863,0 -18.571022,-2.5798 -20.778453,-13.23428 2.598741,-0.41406 8.727425,-0.76721 20.20305,-0.76722 11.475637,0 18.669767,0.5384 21.353867,0.76722 z" /><path
           id="path54"
           style="display:inline;opacity:1;fill:#c04b4b;fill-opacity:1;stroke-width:3.07601"
           d="m 100.08278,158.65543 a 11.692569,7.0223565 0 0 0 -11.692826,7.02231 11.692569,7.0223565 0 0 0 0.288871,1.55133 c 3.272349,1.24904 7.14851,1.68362 11.321275,1.68362 4.44497,0 8.26635,-0.31597 11.46958,-1.6397 a 11.692569,7.0223565 0 0 0 0.30541,-1.59525 11.692569,7.0223565 0 0 0 -11.69231,-7.02231 z" /><path
           id="path53"
           style="display:inline;opacity:1;fill:#ffffff;fill-opacity:1;stroke-width:3.07601"
           d="m 99.424422,154.91147 c -11.475625,1e-5 -17.60416,0.35282 -20.202901,0.76688 0.40684,1.96368 1.024112,3.65303 1.824178,5.10253 h 37.554811 c 0.81927,-1.43918 1.54549,-3.1263 2.17816,-5.10253 -2.6841,-0.22882 -9.87861,-0.76688 -21.354248,-0.76688 z" /></g></g></g></svg>
