<?xml version="1.0" encoding="UTF-8" standalone="no"?>
<!-- Created with Inkscape (http://www.inkscape.org/) -->

<svg
   width="200mm"
   height="300mm"
   viewBox="0 0 200 300"
   version="1.1"
   id="svg1"
   xml:space="preserve"
   xmlns="http://www.w3.org/2000/svg"
   xmlns:svg="http://www.w3.org/2000/svg"><defs
     id="defs1" /><g
     id="layer1"><g
       id="g48"><path
         d="m 101.23103,30.565576 c -6.049399,-0.105996 -12.309127,0.51589 -18.658809,1.92288 -21.157163,4.688099 -37.920944,20.636981 -42.994275,40.90448 -2.876401,11.490965 -3.613502,28.143884 -1.74408,39.400694 0.109228,0.65772 -0.142935,0.92009 -0.72347,0.75189 -0.490277,-0.14205 -2.114463,-0.36536 -3.609082,-0.49609 l -2.717663,-0.23771 -1.810742,1.52394 c -2.65001,2.22983 -3.353755,4.43706 -3.028756,9.50123 0.705491,10.99304 9.217688,21.14609 17.740519,21.16046 l 3.306258,0.006 1.620573,4.1491 c 3.388352,8.67505 8.917157,16.97451 15.054895,22.60017 5.265171,4.8259 11.49526,8.61404 18.014404,11.15385 v 13.22348 c 0,9.05075 0.322432,10.3095 3.364136,13.1377 4.939266,4.59257 14.72898,6.53428 22.022942,4.36821 3.84297,-1.14124 8.36355,-4.1687 10.10481,-6.76755 l 1.35341,-2.01952 v -8.72504 -13.41366 c 15.44445,-6.14045 27.03531,-18.20473 33.27342,-34.88262 l 1.16789,-3.12177 2.93005,0.20257 c 3.89961,0.26917 6.66342,-1.08388 10.82776,-5.30097 8.05507,-8.1571 10.00569,-22.44107 3.52227,-25.79378 -2.02689,-1.04814 -4.61867,-1.1572 -6.89984,-0.2899 l -1.6092,0.61185 0.38395,-3.13728 c 1.84176,-15.039291 0.38464,-31.235596 -3.83749,-42.656825 -8.571,-23.185308 -30.83984,-37.31667 -57.05388,-37.775989 z"
         style="display:inline;fill:#f7cda5"
         id="path11" /></g><path
       id="path1"
       style="display:inline;mix-blend-mode:normal;fill:#914a02;fill-opacity:0.440112"
       d="m 118.5261,182.71029 c -3.206,1.27466 -6.57805,2.29448 -10.10274,3.04685 v 5.1e-4 c -8.29241,1.77006 -17.790041,0.63684 -26.742558,-2.85098 v 4.8643 l 3.028239,1.53427 c 3.91874,1.98578 11.18996,3.83388 15.083834,3.83388 3.934655,0 10.792195,-1.80407 15.244035,-4.01061 l 3.48919,-1.7291 z m -36.845298,6.46059 c 0,0 0,9.05075 0,0 z" /><path
       id="path7"
       style="display:inline;opacity:1;mix-blend-mode:multiply;fill:#914a02;fill-opacity:0.440112;stroke-width:1.895"
       d="m 107.61081,139.27196 c 1e-5,1.38452 -3.49183,4.8281 -7.799237,4.8281 -4.307401,0 -7.799238,-3.44358 -7.799229,-4.8281 5e-6,-0.82743 2.122331,1.48557 7.845653,1.48557 5.723323,0 7.752803,-2.26658 7.752813,-1.48557 z" /><path
       style="opacity:1;mix-blend-mode:multiply;fill:#914a02;fill-opacity:0.440112;stroke:none;stroke-width:1.895"
       d="m 155.27833,136.00342 c 0.0813,-0.87567 4.6309,-1.09825 5.35309,-3.85569 0.72218,-2.75744 -0.10878,-5.23965 -1.81577,-6.2901 0.10355,-2.4896 3.05715,-6.33652 6.58788,-6.47249 3.03559,-0.1169 4.5732,3.45243 3.71971,3.7807 -0.85349,0.32827 -0.57825,-2.56708 -3.72301,-2.37945 -2.72826,0.16278 -4.28671,2.90468 -4.61498,3.95513 1.99294,1.56111 2.99122,4.82222 1.76002,8.21931 -1.32434,3.65406 -4.37489,4.32379 -5.491,4.19249 -1.11611,-0.13131 -1.85726,-0.27423 -1.77594,-1.1499 z m -110.556658,0 c -0.0813,-0.87567 -4.6309,-1.09825 -5.35309,-3.85569 -0.72218,-2.75744 0.10878,-5.23965 1.81577,-6.2901 -0.10355,-2.4896 -3.05715,-6.33652 -6.58788,-6.47249 -3.03559,-0.1169 -4.5732,3.45243 -3.71971,3.7807 0.85349,0.32827 0.57825,-2.56708 3.72301,-2.37945 2.72826,0.16278 4.28671,2.90468 4.61498,3.95513 -1.99294,1.56111 -2.99122,4.82222 -1.76002,8.21931 1.32434,3.65406 4.37489,4.32379 5.491,4.19249 1.11611,-0.13131 1.85726,-0.27423 1.77594,-1.1499 z"
       id="path8" /></g></svg>
